<svg
  width="130"
  height="158"
  viewBox="0 0 130 158"
  fill="none"
  xmlns="http://www.w3.org/2000/svg"
>
<path
    fill-rule="evenodd"
    clip-rule="evenodd"
    d="M56.5 158C87.7041 158 113 132.704 113 101.5C113 70.296 87.7041 45.0001 56.5 45.0001C25.2959 45.0001 0 70.296 0 101.5C0 132.704 25.2959 158 56.5 158Z"
    fill="#383067"
  />
<path
    fill-rule="evenodd"
    clip-rule="evenodd"
    d="M18.9037 98.7252L43.0754 128.785C45.0723 131.268 48.6642 131.691 51.1406 129.686C67.9932 116.04 127.044 68.1269 128.347 65.6931C129.868 62.8535 129.789 61.9581 128.755 60.2442C127.72 58.5303 123.41 59.8097 123.41 59.8097L50.3312 119.755C49.2213 120.665 47.5894 120.498 46.7023 119.369C41.7026 113.008 26.6781 93.9246 25.456 92.7388C23.9881 91.3143 20.9104 91.3321 19.3115 93.2764C17.7126 95.2206 18.9037 98.7252 18.9037 98.7252Z"
    fill="white"
  />
<path
    d="M20.3437 12.8C20.3437 12.5467 20.437 12.2933 20.6237 12.04C20.8103 11.7867 21.0237 11.66 21.2637 11.66C21.4103 11.66 21.5837 11.7467 21.7837 11.92C21.997 12.08 22.2037 12.26 22.4037 12.46C22.6037 12.6467 22.9037 12.8267 23.3037 13C23.717 13.16 24.177 13.24 24.6837 13.24C25.4437 13.24 26.0503 13.06 26.5037 12.7C26.9703 12.34 27.2037 11.8133 27.2037 11.12C27.2037 10.48 26.977 9.94667 26.5237 9.52C26.0837 9.09333 25.5437 8.75333 24.9037 8.5C24.277 8.24667 23.6437 7.97333 23.0037 7.68C22.3637 7.38667 21.817 6.94667 21.3637 6.36C20.9237 5.77333 20.7037 5.04 20.7037 4.16C20.7037 3.45333 20.837 2.84 21.1037 2.32C21.3837 1.8 21.757 1.4 22.2237 1.12C22.6903 0.84 23.177 0.639999 23.6837 0.519999C24.2037 0.386666 24.7503 0.319999 25.3237 0.319999C25.6837 0.319999 26.057 0.346666 26.4437 0.4C26.8437 0.439999 27.237 0.513332 27.6237 0.619999C28.0103 0.726666 28.3303 0.879999 28.5837 1.08C28.837 1.28 28.9637 1.50667 28.9637 1.76C28.9637 2.01333 28.8837 2.26667 28.7237 2.52C28.5637 2.77333 28.3503 2.9 28.0837 2.9C27.9503 2.9 27.7703 2.84 27.5437 2.72C27.317 2.58667 27.0103 2.46 26.6237 2.34C26.2503 2.20667 25.817 2.14 25.3237 2.14C24.5637 2.14 23.957 2.29333 23.5037 2.6C23.0503 2.89333 22.8237 3.34667 22.8237 3.96C22.8237 4.36 22.9437 4.70667 23.1837 5C23.4237 5.28 23.7303 5.51333 24.1037 5.7C24.4903 5.88667 24.917 6.07333 25.3837 6.26C25.8503 6.43333 26.3103 6.64 26.7637 6.88C27.2303 7.12 27.6503 7.4 28.0237 7.72C28.4103 8.02667 28.7237 8.45333 28.9637 9C29.2037 9.54667 29.3237 10.18 29.3237 10.9C29.3237 12.2867 28.9037 13.3467 28.0637 14.08C27.237 14.8 26.137 15.16 24.7637 15.16C23.537 15.16 22.4903 14.9067 21.6237 14.4C20.7703 13.88 20.3437 13.3467 20.3437 12.8ZM31.258 10.66V1.06C31.258 0.833333 31.358 0.666666 31.558 0.559999C31.7714 0.44 32.0247 0.38 32.318 0.38C32.6114 0.38 32.858 0.44 33.058 0.559999C33.2714 0.666666 33.378 0.833333 33.378 1.06V10.66C33.378 11.5267 33.5914 12.1733 34.018 12.6C34.4447 13.0267 35.0447 13.24 35.818 13.24C37.458 13.24 38.278 12.38 38.278 10.66V1.06C38.278 0.833333 38.378 0.666666 38.578 0.559999C38.7914 0.44 39.0447 0.38 39.338 0.38C39.6314 0.38 39.878 0.44 40.078 0.559999C40.2914 0.666666 40.398 0.833333 40.398 1.06V10.66C40.398 12.1933 39.978 13.32 39.138 14.04C38.3114 14.76 37.2047 15.12 35.818 15.12C34.4447 15.12 33.338 14.76 32.498 14.04C31.6714 13.32 31.258 12.1933 31.258 10.66ZM42.8382 10.66V4.84C42.8382 3.30667 43.2449 2.18 44.0582 1.46C44.8849 0.74 45.9582 0.38 47.2782 0.38C48.6382 0.38 49.7315 0.72 50.5582 1.4C51.3982 2.06667 51.8182 2.93333 51.8182 4C51.8182 4.42667 51.7382 4.72 51.5782 4.88C51.4182 5.02667 51.1449 5.1 50.7582 5.1C50.0649 5.1 49.7115 4.86667 49.6982 4.4C49.6182 2.97333 48.8382 2.26 47.3582 2.26C45.7582 2.26 44.9582 3.12 44.9582 4.84V10.66C44.9582 12.38 45.7715 13.24 47.3982 13.24C47.8782 13.24 48.2782 13.1733 48.5982 13.04C48.9182 12.8933 49.1449 12.6867 49.2782 12.42C49.4249 12.1533 49.5249 11.92 49.5782 11.72C49.6315 11.52 49.6715 11.2733 49.6982 10.98C49.7382 10.5133 50.0849 10.28 50.7382 10.28C51.1249 10.28 51.3982 10.36 51.5582 10.52C51.7315 10.6667 51.8182 10.9533 51.8182 11.38C51.8182 12.4867 51.3982 13.3867 50.5582 14.08C49.7182 14.7733 48.6182 15.12 47.2582 15.12C45.9382 15.12 44.8715 14.76 44.0582 14.04C43.2449 13.32 42.8382 12.1933 42.8382 10.66ZM53.6585 10.66V4.84C53.6585 3.30667 54.0652 2.18 54.8785 1.46C55.7052 0.74 56.7785 0.38 58.0985 0.38C59.4585 0.38 60.5518 0.72 61.3785 1.4C62.2185 2.06667 62.6385 2.93333 62.6385 4C62.6385 4.42667 62.5585 4.72 62.3985 4.88C62.2385 5.02667 61.9652 5.1 61.5785 5.1C60.8852 5.1 60.5318 4.86667 60.5185 4.4C60.4385 2.97333 59.6585 2.26 58.1785 2.26C56.5785 2.26 55.7785 3.12 55.7785 4.84V10.66C55.7785 12.38 56.5918 13.24 58.2185 13.24C58.6985 13.24 59.0985 13.1733 59.4185 13.04C59.7385 12.8933 59.9652 12.6867 60.0985 12.42C60.2452 12.1533 60.3452 11.92 60.3985 11.72C60.4518 11.52 60.4918 11.2733 60.5185 10.98C60.5585 10.5133 60.9052 10.28 61.5585 10.28C61.9452 10.28 62.2185 10.36 62.3785 10.52C62.5518 10.6667 62.6385 10.9533 62.6385 11.38C62.6385 12.4867 62.2185 13.3867 61.3785 14.08C60.5385 14.7733 59.4385 15.12 58.0785 15.12C56.7585 15.12 55.6918 14.76 54.8785 14.04C54.0652 13.32 53.6585 12.1933 53.6585 10.66ZM64.6188 14.3V1.08C64.6188 0.866666 64.7122 0.7 64.8988 0.58C65.0855 0.446666 65.3055 0.38 65.5588 0.38H72.6788C72.9055 0.38 73.0788 0.473333 73.1988 0.66C73.3188 0.846666 73.3788 1.06 73.3788 1.3C73.3788 1.56667 73.3122 1.79333 73.1788 1.98C73.0588 2.16667 72.8922 2.26 72.6788 2.26H66.7388V6.84H69.8188C70.0322 6.84 70.1988 6.92667 70.3188 7.1C70.4522 7.26 70.5188 7.46 70.5188 7.7C70.5188 7.91333 70.4588 8.10667 70.3388 8.28C70.2188 8.44 70.0455 8.52 69.8188 8.52H66.7388V13.12H72.6788C72.8922 13.12 73.0588 13.2133 73.1788 13.4C73.3122 13.5867 73.3788 13.8133 73.3788 14.08C73.3788 14.32 73.3188 14.5333 73.1988 14.72C73.0788 14.9067 72.9055 15 72.6788 15H65.5588C65.3055 15 65.0855 14.94 64.8988 14.82C64.7122 14.6867 64.6188 14.5133 64.6188 14.3ZM74.3476 12.8C74.3476 12.5467 74.4409 12.2933 74.6276 12.04C74.8142 11.7867 75.0276 11.66 75.2676 11.66C75.4142 11.66 75.5876 11.7467 75.7876 11.92C76.0009 12.08 76.2076 12.26 76.4076 12.46C76.6076 12.6467 76.9076 12.8267 77.3076 13C77.7209 13.16 78.1809 13.24 78.6876 13.24C79.4476 13.24 80.0542 13.06 80.5076 12.7C80.9742 12.34 81.2076 11.8133 81.2076 11.12C81.2076 10.48 80.9809 9.94667 80.5276 9.52C80.0876 9.09333 79.5476 8.75333 78.9076 8.5C78.2809 8.24667 77.6476 7.97333 77.0076 7.68C76.3676 7.38667 75.8209 6.94667 75.3676 6.36C74.9276 5.77333 74.7076 5.04 74.7076 4.16C74.7076 3.45333 74.8409 2.84 75.1076 2.32C75.3876 1.8 75.7609 1.4 76.2276 1.12C76.6942 0.84 77.1809 0.639999 77.6876 0.519999C78.2076 0.386666 78.7542 0.319999 79.3276 0.319999C79.6876 0.319999 80.0609 0.346666 80.4476 0.4C80.8476 0.439999 81.2409 0.513332 81.6276 0.619999C82.0142 0.726666 82.3342 0.879999 82.5876 1.08C82.8409 1.28 82.9676 1.50667 82.9676 1.76C82.9676 2.01333 82.8876 2.26667 82.7276 2.52C82.5676 2.77333 82.3542 2.9 82.0876 2.9C81.9542 2.9 81.7742 2.84 81.5476 2.72C81.3209 2.58667 81.0142 2.46 80.6276 2.34C80.2542 2.20667 79.8209 2.14 79.3276 2.14C78.5676 2.14 77.9609 2.29333 77.5076 2.6C77.0542 2.89333 76.8276 3.34667 76.8276 3.96C76.8276 4.36 76.9476 4.70667 77.1876 5C77.4276 5.28 77.7342 5.51333 78.1076 5.7C78.4942 5.88667 78.9209 6.07333 79.3876 6.26C79.8542 6.43333 80.3142 6.64 80.7676 6.88C81.2342 7.12 81.6542 7.4 82.0276 7.72C82.4142 8.02667 82.7276 8.45333 82.9676 9C83.2076 9.54667 83.3276 10.18 83.3276 10.9C83.3276 12.2867 82.9076 13.3467 82.0676 14.08C81.2409 14.8 80.1409 15.16 78.7676 15.16C77.5409 15.16 76.4942 14.9067 75.6276 14.4C74.7742 13.88 74.3476 13.3467 74.3476 12.8ZM84.582 12.8C84.582 12.5467 84.6753 12.2933 84.862 12.04C85.0486 11.7867 85.262 11.66 85.502 11.66C85.6486 11.66 85.822 11.7467 86.022 11.92C86.2353 12.08 86.442 12.26 86.642 12.46C86.842 12.6467 87.142 12.8267 87.542 13C87.9553 13.16 88.4153 13.24 88.922 13.24C89.682 13.24 90.2886 13.06 90.742 12.7C91.2086 12.34 91.442 11.8133 91.442 11.12C91.442 10.48 91.2153 9.94667 90.762 9.52C90.322 9.09333 89.782 8.75333 89.142 8.5C88.5153 8.24667 87.882 7.97333 87.242 7.68C86.602 7.38667 86.0553 6.94667 85.602 6.36C85.162 5.77333 84.942 5.04 84.942 4.16C84.942 3.45333 85.0753 2.84 85.342 2.32C85.622 1.8 85.9953 1.4 86.462 1.12C86.9286 0.84 87.4153 0.639999 87.922 0.519999C88.442 0.386666 88.9886 0.319999 89.562 0.319999C89.922 0.319999 90.2953 0.346666 90.682 0.4C91.082 0.439999 91.4753 0.513332 91.862 0.619999C92.2486 0.726666 92.5686 0.879999 92.822 1.08C93.0753 1.28 93.202 1.50667 93.202 1.76C93.202 2.01333 93.122 2.26667 92.962 2.52C92.802 2.77333 92.5886 2.9 92.322 2.9C92.1886 2.9 92.0086 2.84 91.782 2.72C91.5553 2.58667 91.2486 2.46 90.862 2.34C90.4886 2.20667 90.0553 2.14 89.562 2.14C88.802 2.14 88.1953 2.29333 87.742 2.6C87.2886 2.89333 87.062 3.34667 87.062 3.96C87.062 4.36 87.182 4.70667 87.422 5C87.662 5.28 87.9686 5.51333 88.342 5.7C88.7286 5.88667 89.1553 6.07333 89.622 6.26C90.0886 6.43333 90.5486 6.64 91.002 6.88C91.4686 7.12 91.8886 7.4 92.262 7.72C92.6486 8.02667 92.962 8.45333 93.202 9C93.442 9.54667 93.562 10.18 93.562 10.9C93.562 12.2867 93.142 13.3467 92.302 14.08C91.4753 14.8 90.3753 15.16 89.002 15.16C87.7753 15.16 86.7286 14.9067 85.862 14.4C85.0086 13.88 84.582 13.3467 84.582 12.8Z"
    fill="#392F63"
  />
</svg>
